<mxfile host="app.diagrams.net" modified="2023-05-10T07:22:20.944Z" agent="Mozilla/5.0 (Macintosh; Intel Mac OS X 10_15_7) AppleWebKit/537.36 (KHTML, like Gecko) Chrome/112.0.0.0 Safari/537.36" version="21.2.9" etag="UcrWCpb2QN7UMegd-Qb0" type="github">
  <diagram name="Page-1" id="wIFwSzP2w4merVdyTT7O">
    <mxGraphModel>
      <root>
        <mxCell id="0" />
        <mxCell id="1" parent="0" />
      </root>
    </mxGraphModel>
  </diagram>
</mxfile>
